<svg width="96" height="96" viewBox="0 0 96 96" fill="none" xmlns="http://www.w3.org/2000/svg">
<g filter="url(#filter0_d)">
<circle cx="48" cy="48" r="42" fill="#6246EA" fill-opacity="0.7"/>
<circle cx="48" cy="48" r="38.25" stroke="#6246EA" stroke-opacity="0.8" stroke-width="7.5"/>
</g>
<path d="M62.28 69L34.56 69L35.7523 65.0502L35.7523 60.7966L46.7806 48.0357L46.7806 45.6051L35.7523 34.0596L35.7523 30.1098L34.56 26.16L62.28 26.16L61.0877 30.1098L61.0877 34.0596L49.7613 45.6051L49.7613 48.0357L61.0877 60.7966L61.0877 65.0502L62.28 69Z" fill="#E45858"/>
<path d="M61.0877 65.0502L62.28 69L34.56 69L35.7523 65.0502M61.0877 65.0502L35.7523 65.0502M61.0877 65.0502L61.0877 60.7966L49.7613 48.0357L49.7613 45.6051L61.0877 34.0596L61.0877 30.1098M35.7523 65.0502L35.7523 60.7966L46.7806 48.0357L46.7806 45.6051L35.7523 34.0596L35.7523 30.1098M35.7523 30.1098L61.0877 30.1098M35.7523 30.1098L34.56 26.16L62.28 26.16L61.0877 30.1098" stroke="#2B2C34" stroke-width="1.5"/>
<defs>
<filter id="filter0_d" x="3" y="6" width="90" height="90" filterUnits="userSpaceOnUse" color-interpolation-filters="sRGB">
<feFlood flood-opacity="0" result="BackgroundImageFix"/>
<feColorMatrix in="SourceAlpha" type="matrix" values="0 0 0 0 0 0 0 0 0 0 0 0 0 0 0 0 0 0 127 0"/>
<feOffset dy="3"/>
<feGaussianBlur stdDeviation="1.5"/>
<feColorMatrix type="matrix" values="0 0 0 0 0 0 0 0 0 0 0 0 0 0 0 0 0 0 0.25 0"/>
<feBlend mode="normal" in2="BackgroundImageFix" result="effect1_dropShadow"/>
<feBlend mode="normal" in="SourceGraphic" in2="effect1_dropShadow" result="shape"/>
</filter>
</defs>
</svg>
